<?xml version="1.0" standalone="no"?>
<!DOCTYPE svg PUBLIC "-//W3C//DTD SVG 20010904//EN"
 "http://www.w3.org/TR/2001/REC-SVG-20010904/DTD/svg10.dtd">
<svg version="1.0" xmlns="http://www.w3.org/2000/svg"
 width="263.000000pt" height="89.000000pt" viewBox="0 0 263.000000 89.000000"
 preserveAspectRatio="xMidYMid meet">
<metadata>
Created by potrace 1.10, written by Peter Selinger 2001-2011
</metadata>
<g transform="translate(0.000000,89.000000) scale(0.100000,-0.100000)"
fill="#e3b061" stroke="none">
<path d="M462 482 c-7 -2 -12 -10 -12 -18 0 -18 -24 -18 -40 1 -7 8 -16 15
-21 15 -11 0 -1 -50 12 -64 14 -15 11 -26 -7 -26 -8 0 -12 -4 -9 -10 19 -31
115 11 115 50 0 10 5 22 10 25 6 3 10 10 10 14 0 10 -40 19 -58 13z m28 -37
c0 -15 -38 -55 -52 -55 -7 0 -28 33 -28 44 0 3 6 3 13 0 7 -2 21 2 32 10 25
19 35 20 35 1z"/>
<path d="M963 470 c-3 -11 -10 -20 -16 -20 -7 0 -7 -4 1 -12 7 -7 12 -25 12
-40 0 -19 5 -28 16 -28 12 0 15 6 11 22 -4 14 0 29 10 40 15 17 15 18 -3 18
-18 1 -18 1 -2 14 19 14 14 26 -10 26 -7 0 -16 -9 -19 -20z"/>
<path d="M1464 469 c-18 -20 -18 -21 5 -38 l24 -18 -23 -6 c-14 -4 -21 -12
-18 -24 5 -26 71 -26 76 1 2 10 -1 22 -7 26 -7 3 -9 14 -5 23 7 19 24 23 24 6
0 -6 7 -3 16 6 13 12 14 19 5 28 -9 9 -14 9 -21 -2 -7 -12 -11 -12 -25 2 -21
22 -28 21 -51 -4z m42 -10 c3 -6 1 -16 -5 -22 -9 -9 -14 -8 -21 3 -9 15 -4 30
10 30 5 0 12 -5 16 -11z m9 -74 c0 -5 -10 -11 -22 -13 -16 -2 -23 2 -23 13 0
11 7 15 23 13 12 -2 22 -7 22 -13z"/>
<path d="M1986 483 c-10 -10 -7 -103 3 -103 5 0 11 23 13 51 3 49 -2 66 -16
52z"/>
<path d="M2020 416 c0 -20 5 -36 10 -36 6 0 10 11 10 25 0 14 5 25 10 25 6 0
10 -11 10 -25 0 -14 5 -25 11 -25 6 0 9 14 7 33 -2 27 -8 33 -30 35 -26 3 -28
1 -28 -32z"/>
</g>
</svg>
